<svg xmlns="http://www.w3.org/2000/svg" viewBox="0 0 630 350" role="img" aria-label="bmo">
  <style>
    @media (prefers-reduced-motion: no-preference) {
      .lt { animation: bob 2.8s ease-in-out infinite }
      .l0 { animation-delay: 0.00s }
      .l1 { animation-delay: -0.93s }
      .l2 { animation-delay: -1.87s }
      @keyframes bob {
        0%, 100% { transform: translateY(-5px) }
        50% { transform: translateY(5px) }
      }
    }
  </style>
  <rect width="630" height="350" fill="#0C0C0F"/>
  <g shape-rendering="crispEdges">
    <rect x="290" y="10" width="90" height="5" fill="#72DCC7"/>
    <rect x="380" y="10" width="10" height="5" fill="#2F8E7C"/>
    <rect x="290" y="15" width="90" height="5" fill="#72DCC7"/>
    <rect x="380" y="15" width="10" height="5" fill="#2F8E7C"/>
    <rect x="280" y="20" width="90" height="5" fill="#72DCC7"/>
    <rect x="370" y="20" width="20" height="5" fill="#2F8E7C"/>
    <rect x="280" y="25" width="90" height="5" fill="#72DCC7"/>
    <rect x="370" y="25" width="20" height="5" fill="#2F8E7C"/>
    <rect x="270" y="30" width="90" height="5" fill="#72DCC7"/>
    <rect x="360" y="30" width="30" height="5" fill="#2F8E7C"/>
    <rect x="270" y="35" width="90" height="5" fill="#72DCC7"/>
    <rect x="360" y="35" width="25" height="5" fill="#2F8E7C"/>
    <rect x="385" y="35" width="5" height="5" fill="#17423A"/>
    <rect x="260" y="40" width="100" height="5" fill="#4EC6AF"/>
    <rect x="360" y="40" width="15" height="5" fill="#2F8E7C"/>
    <rect x="375" y="40" width="5" height="5" fill="#17423A"/>
    <rect x="380" y="40" width="10" height="5" fill="#2F8E7C"/>
    <rect x="260" y="45" width="100" height="5" fill="#4EC6AF"/>
    <rect x="360" y="45" width="5" height="5" fill="#2F8E7C"/>
    <rect x="365" y="45" width="5" height="5" fill="#17423A"/>
    <rect x="370" y="45" width="20" height="5" fill="#2F8E7C"/>
    <rect x="260" y="50" width="15" height="5" fill="#4EC6AF"/>
    <rect x="275" y="50" width="70" height="5" fill="#D8F6E7"/>
    <rect x="345" y="50" width="15" height="5" fill="#4EC6AF"/>
    <rect x="360" y="50" width="25" height="5" fill="#2F8E7C"/>
    <rect x="385" y="50" width="5" height="5" fill="#17423A"/>
    <rect x="260" y="55" width="10" height="5" fill="#4EC6AF"/>
    <rect x="270" y="55" width="80" height="5" fill="#D8F6E7"/>
    <rect x="350" y="55" width="10" height="5" fill="#4EC6AF"/>
    <rect x="360" y="55" width="15" height="5" fill="#2F8E7C"/>
    <rect x="375" y="55" width="5" height="5" fill="#17423A"/>
    <rect x="380" y="55" width="10" height="5" fill="#2F8E7C"/>
    <rect x="260" y="60" width="10" height="5" fill="#4EC6AF"/>
    <rect x="270" y="60" width="80" height="5" fill="#D8F6E7"/>
    <rect x="350" y="60" width="10" height="5" fill="#4EC6AF"/>
    <rect x="360" y="60" width="5" height="5" fill="#2F8E7C"/>
    <rect x="365" y="60" width="5" height="5" fill="#17423A"/>
    <rect x="370" y="60" width="20" height="5" fill="#2F8E7C"/>
    <rect x="260" y="65" width="10" height="5" fill="#4EC6AF"/>
    <rect x="270" y="65" width="20" height="5" fill="#D8F6E7"/>
    <rect x="290" y="65" width="10" height="5" fill="#17423A"/>
    <rect x="300" y="65" width="20" height="5" fill="#D8F6E7"/>
    <rect x="320" y="65" width="10" height="5" fill="#17423A"/>
    <rect x="330" y="65" width="20" height="5" fill="#D8F6E7"/>
    <rect x="350" y="65" width="10" height="5" fill="#4EC6AF"/>
    <rect x="360" y="65" width="5" height="5" fill="#2F8E7C"/>
    <rect x="365" y="65" width="15" height="5" fill="#17423A"/>
    <rect x="380" y="65" width="10" height="5" fill="#2F8E7C"/>
    <rect x="260" y="70" width="10" height="5" fill="#4EC6AF"/>
    <rect x="270" y="70" width="20" height="5" fill="#D8F6E7"/>
    <rect x="290" y="70" width="10" height="5" fill="#17423A"/>
    <rect x="300" y="70" width="20" height="5" fill="#D8F6E7"/>
    <rect x="320" y="70" width="10" height="5" fill="#17423A"/>
    <rect x="330" y="70" width="20" height="5" fill="#D8F6E7"/>
    <rect x="350" y="70" width="10" height="5" fill="#4EC6AF"/>
    <rect x="360" y="70" width="5" height="5" fill="#2F8E7C"/>
    <rect x="365" y="70" width="5" height="5" fill="#17423A"/>
    <rect x="370" y="70" width="10" height="5" fill="#2F8E7C"/>
    <rect x="380" y="70" width="5" height="5" fill="#17423A"/>
    <rect x="385" y="70" width="5" height="5" fill="#2F8E7C"/>
    <rect x="240" y="75" width="10" height="5" fill="#3E6B8C"/>
    <rect x="260" y="75" width="10" height="5" fill="#4EC6AF"/>
    <rect x="270" y="75" width="80" height="5" fill="#D8F6E7"/>
    <rect x="350" y="75" width="10" height="5" fill="#4EC6AF"/>
    <rect x="360" y="75" width="5" height="5" fill="#2F8E7C"/>
    <rect x="365" y="75" width="15" height="5" fill="#17423A"/>
    <rect x="380" y="75" width="10" height="5" fill="#2F8E7C"/>
    <rect x="240" y="80" width="10" height="5" fill="#3E6B8C"/>
    <rect x="260" y="80" width="10" height="5" fill="#4EC6AF"/>
    <rect x="270" y="80" width="25" height="5" fill="#D8F6E7"/>
    <rect x="295" y="80" width="5" height="5" fill="#17423A"/>
    <rect x="300" y="80" width="20" height="5" fill="#D8F6E7"/>
    <rect x="320" y="80" width="5" height="5" fill="#17423A"/>
    <rect x="325" y="80" width="25" height="5" fill="#D8F6E7"/>
    <rect x="350" y="80" width="10" height="5" fill="#4EC6AF"/>
    <rect x="360" y="80" width="5" height="5" fill="#2F8E7C"/>
    <rect x="365" y="80" width="5" height="5" fill="#17423A"/>
    <rect x="370" y="80" width="10" height="5" fill="#2F8E7C"/>
    <rect x="380" y="80" width="5" height="5" fill="#17423A"/>
    <rect x="385" y="80" width="5" height="5" fill="#2F8E7C"/>
    <rect x="245" y="85" width="5" height="5" fill="#3E6B8C"/>
    <rect x="260" y="85" width="10" height="5" fill="#4EC6AF"/>
    <rect x="270" y="85" width="25" height="5" fill="#D8F6E7"/>
    <rect x="295" y="85" width="5" height="5" fill="#17423A"/>
    <rect x="300" y="85" width="20" height="5" fill="#D8F6E7"/>
    <rect x="320" y="85" width="5" height="5" fill="#17423A"/>
    <rect x="325" y="85" width="25" height="5" fill="#D8F6E7"/>
    <rect x="350" y="85" width="10" height="5" fill="#4EC6AF"/>
    <rect x="360" y="85" width="5" height="5" fill="#2F8E7C"/>
    <rect x="365" y="85" width="15" height="5" fill="#17423A"/>
    <rect x="380" y="85" width="10" height="5" fill="#2F8E7C"/>
    <rect x="245" y="90" width="5" height="5" fill="#3E6B8C"/>
    <rect x="260" y="90" width="10" height="5" fill="#4EC6AF"/>
    <rect x="270" y="90" width="30" height="5" fill="#D8F6E7"/>
    <rect x="300" y="90" width="20" height="5" fill="#17423A"/>
    <rect x="320" y="90" width="30" height="5" fill="#D8F6E7"/>
    <rect x="350" y="90" width="10" height="5" fill="#4EC6AF"/>
    <rect x="360" y="90" width="30" height="5" fill="#2F8E7C"/>
    <rect x="245" y="95" width="5" height="5" fill="#3E6B8C"/>
    <rect x="260" y="95" width="10" height="5" fill="#4EC6AF"/>
    <rect x="270" y="95" width="80" height="5" fill="#D8F6E7"/>
    <rect x="350" y="95" width="10" height="5" fill="#4EC6AF"/>
    <rect x="360" y="95" width="5" height="5" fill="#2F8E7C"/>
    <rect x="365" y="95" width="5" height="5" fill="#17423A"/>
    <rect x="370" y="95" width="10" height="5" fill="#2F8E7C"/>
    <rect x="380" y="95" width="5" height="5" fill="#17423A"/>
    <rect x="385" y="95" width="5" height="5" fill="#2F8E7C"/>
    <rect x="245" y="100" width="5" height="5" fill="#3E6B8C"/>
    <rect x="260" y="100" width="10" height="5" fill="#4EC6AF"/>
    <rect x="270" y="100" width="80" height="5" fill="#D8F6E7"/>
    <rect x="350" y="100" width="10" height="5" fill="#4EC6AF"/>
    <rect x="360" y="100" width="5" height="5" fill="#2F8E7C"/>
    <rect x="365" y="100" width="20" height="5" fill="#17423A"/>
    <rect x="385" y="100" width="5" height="5" fill="#2F8E7C"/>
    <rect x="245" y="105" width="5" height="5" fill="#3E6B8C"/>
    <rect x="260" y="105" width="15" height="5" fill="#4EC6AF"/>
    <rect x="275" y="105" width="70" height="5" fill="#D8F6E7"/>
    <rect x="345" y="105" width="15" height="5" fill="#4EC6AF"/>
    <rect x="360" y="105" width="5" height="5" fill="#2F8E7C"/>
    <rect x="365" y="105" width="5" height="5" fill="#17423A"/>
    <rect x="370" y="105" width="10" height="5" fill="#2F8E7C"/>
    <rect x="380" y="105" width="5" height="5" fill="#17423A"/>
    <rect x="385" y="105" width="5" height="5" fill="#2F8E7C"/>
    <rect x="245" y="110" width="15" height="5" fill="#3E6B8C"/>
    <rect x="260" y="110" width="100" height="5" fill="#4EC6AF"/>
    <rect x="360" y="110" width="5" height="5" fill="#2F8E7C"/>
    <rect x="365" y="110" width="5" height="5" fill="#17423A"/>
    <rect x="370" y="110" width="10" height="5" fill="#2F8E7C"/>
    <rect x="380" y="110" width="5" height="5" fill="#17423A"/>
    <rect x="385" y="110" width="5" height="5" fill="#2F8E7C"/>
    <rect x="260" y="115" width="80" height="5" fill="#4EC6AF"/>
    <rect x="340" y="115" width="10" height="5" fill="#2E62B8"/>
    <rect x="350" y="115" width="10" height="5" fill="#4EC6AF"/>
    <rect x="360" y="115" width="5" height="5" fill="#2F8E7C"/>
    <rect x="365" y="115" width="5" height="5" fill="#17423A"/>
    <rect x="370" y="115" width="10" height="5" fill="#2F8E7C"/>
    <rect x="380" y="115" width="5" height="5" fill="#17423A"/>
    <rect x="385" y="115" width="5" height="5" fill="#2F8E7C"/>
    <rect x="260" y="120" width="10" height="5" fill="#4EC6AF"/>
    <rect x="270" y="120" width="60" height="5" fill="#17423A"/>
    <rect x="330" y="120" width="5" height="5" fill="#4EC6AF"/>
    <rect x="335" y="120" width="20" height="5" fill="#2E62B8"/>
    <rect x="355" y="120" width="5" height="5" fill="#4EC6AF"/>
    <rect x="360" y="120" width="30" height="5" fill="#2F8E7C"/>
    <rect x="260" y="125" width="10" height="5" fill="#4EC6AF"/>
    <rect x="270" y="125" width="60" height="5" fill="#17423A"/>
    <rect x="330" y="125" width="10" height="5" fill="#4EC6AF"/>
    <rect x="340" y="125" width="10" height="5" fill="#2E62B8"/>
    <rect x="350" y="125" width="10" height="5" fill="#4EC6AF"/>
    <rect x="360" y="125" width="5" height="5" fill="#2F8E7C"/>
    <rect x="365" y="125" width="10" height="5" fill="#17423A"/>
    <rect x="375" y="125" width="15" height="5" fill="#2F8E7C"/>
    <rect x="260" y="130" width="100" height="5" fill="#4EC6AF"/>
    <rect x="360" y="130" width="15" height="5" fill="#17423A"/>
    <rect x="375" y="130" width="25" height="5" fill="#3E6B8C"/>
    <rect x="260" y="135" width="20" height="5" fill="#4EC6AF"/>
    <rect x="280" y="135" width="10" height="5" fill="#F5C84C"/>
    <rect x="290" y="135" width="70" height="5" fill="#4EC6AF"/>
    <rect x="360" y="135" width="20" height="5" fill="#17423A"/>
    <rect x="380" y="135" width="10" height="5" fill="#2F8E7C"/>
    <rect x="395" y="135" width="5" height="5" fill="#3E6B8C"/>
    <rect x="260" y="140" width="20" height="5" fill="#4EC6AF"/>
    <rect x="280" y="140" width="10" height="5" fill="#F5C84C"/>
    <rect x="290" y="140" width="25" height="5" fill="#4EC6AF"/>
    <rect x="315" y="140" width="5" height="5" fill="#7CCBD4"/>
    <rect x="320" y="140" width="40" height="5" fill="#4EC6AF"/>
    <rect x="360" y="140" width="5" height="5" fill="#2F8E7C"/>
    <rect x="365" y="140" width="10" height="5" fill="#17423A"/>
    <rect x="375" y="140" width="5" height="5" fill="#2F8E7C"/>
    <rect x="395" y="140" width="5" height="5" fill="#3E6B8C"/>
    <rect x="260" y="145" width="10" height="5" fill="#4EC6AF"/>
    <rect x="270" y="145" width="30" height="5" fill="#F5C84C"/>
    <rect x="300" y="145" width="10" height="5" fill="#4EC6AF"/>
    <rect x="310" y="145" width="15" height="5" fill="#7CCBD4"/>
    <rect x="325" y="145" width="35" height="5" fill="#4EC6AF"/>
    <rect x="360" y="145" width="20" height="5" fill="#2F8E7C"/>
    <rect x="395" y="145" width="5" height="5" fill="#3E6B8C"/>
    <rect x="260" y="150" width="10" height="5" fill="#4EC6AF"/>
    <rect x="270" y="150" width="5" height="5" fill="#D4A62F"/>
    <rect x="275" y="150" width="20" height="5" fill="#F5C84C"/>
    <rect x="295" y="150" width="5" height="5" fill="#D4A62F"/>
    <rect x="300" y="150" width="5" height="5" fill="#4EC6AF"/>
    <rect x="305" y="150" width="25" height="5" fill="#7CCBD4"/>
    <rect x="330" y="150" width="10" height="5" fill="#4EC6AF"/>
    <rect x="340" y="150" width="10" height="5" fill="#D8443C"/>
    <rect x="350" y="150" width="10" height="5" fill="#4EC6AF"/>
    <rect x="360" y="150" width="10" height="5" fill="#2F8E7C"/>
    <rect x="395" y="150" width="5" height="5" fill="#3E6B8C"/>
    <rect x="260" y="155" width="20" height="5" fill="#4EC6AF"/>
    <rect x="280" y="155" width="10" height="5" fill="#F5C84C"/>
    <rect x="290" y="155" width="45" height="5" fill="#4EC6AF"/>
    <rect x="335" y="155" width="20" height="5" fill="#D8443C"/>
    <rect x="355" y="155" width="5" height="5" fill="#4EC6AF"/>
    <rect x="360" y="155" width="10" height="5" fill="#2F8E7C"/>
    <rect x="395" y="155" width="5" height="5" fill="#3E6B8C"/>
    <rect x="260" y="160" width="20" height="5" fill="#4EC6AF"/>
    <rect x="280" y="160" width="10" height="5" fill="#D4A62F"/>
    <rect x="290" y="160" width="45" height="5" fill="#4EC6AF"/>
    <rect x="335" y="160" width="20" height="5" fill="#D8443C"/>
    <rect x="355" y="160" width="5" height="5" fill="#4EC6AF"/>
    <rect x="395" y="160" width="5" height="5" fill="#3E6B8C"/>
    <rect x="260" y="165" width="5" height="5" fill="#4EC6AF"/>
    <rect x="265" y="165" width="15" height="5" fill="#22406B"/>
    <rect x="280" y="165" width="5" height="5" fill="#4EC6AF"/>
    <rect x="285" y="165" width="15" height="5" fill="#22406B"/>
    <rect x="300" y="165" width="40" height="5" fill="#4EC6AF"/>
    <rect x="340" y="165" width="10" height="5" fill="#D8443C"/>
    <rect x="350" y="165" width="10" height="5" fill="#4EC6AF"/>
    <rect x="390" y="165" width="10" height="5" fill="#3E6B8C"/>
    <rect x="300" y="170" width="10" height="5" fill="#3E6B8C"/>
    <rect x="345" y="170" width="10" height="5" fill="#3E6B8C"/>
    <rect x="390" y="170" width="10" height="5" fill="#3E6B8C"/>
    <rect x="300" y="175" width="10" height="5" fill="#3E6B8C"/>
    <rect x="345" y="175" width="10" height="5" fill="#3E6B8C"/>
    <rect x="300" y="180" width="10" height="5" fill="#3E6B8C"/>
    <rect x="345" y="180" width="10" height="5" fill="#3E6B8C"/>
    <rect x="300" y="185" width="10" height="5" fill="#3E6B8C"/>
    <rect x="345" y="185" width="10" height="5" fill="#3E6B8C"/>
    <rect x="300" y="190" width="10" height="5" fill="#3E6B8C"/>
    <rect x="345" y="190" width="10" height="5" fill="#3E6B8C"/>
    <rect x="300" y="195" width="10" height="5" fill="#3E6B8C"/>
    <rect x="345" y="195" width="10" height="5" fill="#3E6B8C"/>
    <rect x="300" y="200" width="10" height="5" fill="#3E6B8C"/>
    <rect x="345" y="200" width="10" height="5" fill="#3E6B8C"/>
    <rect x="300" y="205" width="10" height="5" fill="#3E6B8C"/>
    <rect x="345" y="205" width="10" height="5" fill="#3E6B8C"/>
    <rect x="290" y="210" width="20" height="5" fill="#3E6B8C"/>
    <rect x="335" y="210" width="20" height="5" fill="#3E6B8C"/>
    <g transform="translate(220 250)"><g class="lt l0">
      <rect x="0" y="0" width="40" height="10" fill="#4EC6AF"/>
      <rect x="0" y="10" width="10" height="10" fill="#4EC6AF"/>
      <rect x="40" y="10" width="10" height="10" fill="#4EC6AF"/>
      <rect x="0" y="20" width="40" height="10" fill="#4EC6AF"/>
      <rect x="0" y="30" width="10" height="10" fill="#4EC6AF"/>
      <rect x="40" y="30" width="10" height="10" fill="#4EC6AF"/>
      <rect x="0" y="40" width="10" height="10" fill="#4EC6AF"/>
      <rect x="40" y="40" width="10" height="10" fill="#4EC6AF"/>
      <rect x="0" y="50" width="40" height="10" fill="#4EC6AF"/>
      <rect x="10" y="10" width="10" height="10" fill="#1D5D50"/>
      <rect x="20" y="10" width="10" height="10" fill="#1D5D50"/>
      <rect x="30" y="10" width="10" height="10" fill="#1D5D50"/>
      <rect x="50" y="20" width="10" height="10" fill="#1D5D50"/>
      <rect x="10" y="30" width="10" height="10" fill="#1D5D50"/>
      <rect x="20" y="30" width="10" height="10" fill="#1D5D50"/>
      <rect x="30" y="30" width="10" height="10" fill="#1D5D50"/>
      <rect x="10" y="40" width="10" height="10" fill="#1D5D50"/>
      <rect x="50" y="40" width="10" height="10" fill="#1D5D50"/>
      <rect x="50" y="50" width="10" height="10" fill="#1D5D50"/>
      <rect x="10" y="60" width="10" height="10" fill="#1D5D50"/>
      <rect x="20" y="60" width="10" height="10" fill="#1D5D50"/>
      <rect x="30" y="60" width="10" height="10" fill="#1D5D50"/>
      <rect x="40" y="60" width="10" height="10" fill="#1D5D50"/>
    </g></g>
    <g transform="translate(290 250)"><g class="lt l1">
      <rect x="0" y="0" width="10" height="10" fill="#4EC6AF"/>
      <rect x="40" y="0" width="10" height="10" fill="#4EC6AF"/>
      <rect x="0" y="10" width="20" height="10" fill="#4EC6AF"/>
      <rect x="30" y="10" width="20" height="10" fill="#4EC6AF"/>
      <rect x="0" y="20" width="10" height="10" fill="#4EC6AF"/>
      <rect x="20" y="20" width="10" height="10" fill="#4EC6AF"/>
      <rect x="40" y="20" width="10" height="10" fill="#4EC6AF"/>
      <rect x="0" y="30" width="10" height="10" fill="#4EC6AF"/>
      <rect x="40" y="30" width="10" height="10" fill="#4EC6AF"/>
      <rect x="0" y="40" width="10" height="10" fill="#4EC6AF"/>
      <rect x="40" y="40" width="10" height="10" fill="#4EC6AF"/>
      <rect x="0" y="50" width="10" height="10" fill="#4EC6AF"/>
      <rect x="40" y="50" width="10" height="10" fill="#4EC6AF"/>
      <rect x="50" y="10" width="10" height="10" fill="#1D5D50"/>
      <rect x="10" y="20" width="10" height="10" fill="#1D5D50"/>
      <rect x="50" y="20" width="10" height="10" fill="#1D5D50"/>
      <rect x="10" y="30" width="10" height="10" fill="#1D5D50"/>
      <rect x="30" y="30" width="10" height="10" fill="#1D5D50"/>
      <rect x="50" y="30" width="10" height="10" fill="#1D5D50"/>
      <rect x="10" y="40" width="10" height="10" fill="#1D5D50"/>
      <rect x="50" y="40" width="10" height="10" fill="#1D5D50"/>
      <rect x="10" y="50" width="10" height="10" fill="#1D5D50"/>
      <rect x="50" y="50" width="10" height="10" fill="#1D5D50"/>
      <rect x="10" y="60" width="10" height="10" fill="#1D5D50"/>
      <rect x="50" y="60" width="10" height="10" fill="#1D5D50"/>
    </g></g>
    <g transform="translate(360 250)"><g class="lt l2">
      <rect x="10" y="0" width="30" height="10" fill="#4EC6AF"/>
      <rect x="0" y="10" width="10" height="10" fill="#4EC6AF"/>
      <rect x="40" y="10" width="10" height="10" fill="#4EC6AF"/>
      <rect x="0" y="20" width="10" height="10" fill="#4EC6AF"/>
      <rect x="40" y="20" width="10" height="10" fill="#4EC6AF"/>
      <rect x="0" y="30" width="10" height="10" fill="#4EC6AF"/>
      <rect x="40" y="30" width="10" height="10" fill="#4EC6AF"/>
      <rect x="0" y="40" width="10" height="10" fill="#4EC6AF"/>
      <rect x="40" y="40" width="10" height="10" fill="#4EC6AF"/>
      <rect x="10" y="50" width="30" height="10" fill="#4EC6AF"/>
      <rect x="20" y="10" width="10" height="10" fill="#1D5D50"/>
      <rect x="30" y="10" width="10" height="10" fill="#1D5D50"/>
      <rect x="10" y="20" width="10" height="10" fill="#1D5D50"/>
      <rect x="50" y="20" width="10" height="10" fill="#1D5D50"/>
      <rect x="10" y="30" width="10" height="10" fill="#1D5D50"/>
      <rect x="50" y="30" width="10" height="10" fill="#1D5D50"/>
      <rect x="10" y="40" width="10" height="10" fill="#1D5D50"/>
      <rect x="50" y="40" width="10" height="10" fill="#1D5D50"/>
      <rect x="50" y="50" width="10" height="10" fill="#1D5D50"/>
      <rect x="20" y="60" width="10" height="10" fill="#1D5D50"/>
      <rect x="30" y="60" width="10" height="10" fill="#1D5D50"/>
      <rect x="40" y="60" width="10" height="10" fill="#1D5D50"/>
    </g></g>
  </g>
</svg>
